<svg style="display:none;">
    <symbol id="logo" viewBox="0 0 71 150" fill="none" xmlns="http://www.w3.org/2000/svg">
        <path d="M42.4343 71.1919L41.5794 73.2903C45.543 75.0778 48.3149 78.6528 48.3149 83.7563C48.3149 98.2897 13.9375 97.0203 13.9375 114.999C13.9375 123.859 20.9322 127.745 29.0926 127.745C36.0873 127.745 43.7296 124.921 48.7295 119.921L56.1386 126.709H56.864V83.86C56.864 75.6995 49.5325 72.1763 42.4343 71.1919ZM48.289 119.274C44.5327 122.926 39.2996 125.439 33.963 125.439C26.6574 125.439 22.5642 120.517 22.5642 113.419C22.5642 98.5747 44.6104 97.642 48.2631 86.9946V119.274H48.289Z" fill="currentColor"/>
        <path d="M19.5591 77.3834V90.2329H19.7664C20.4918 83.6786 23.4969 76.1659 29.4294 73.2385L28.9631 72.1763C25.3362 73.1607 21.9166 74.8446 19.5591 77.3834Z" fill="currentColor"/>
        <path d="M45.4394 27.6177V27.7473C47.0715 27.9027 48.7035 28.2395 50.0766 28.913C52.2009 29.9234 53.7293 31.7109 53.7293 34.7937C53.7293 36.9699 53.1076 39.0424 52.2786 41.0112L39.6105 72.0986L39.0146 70.6996L25.5694 38.7574C25.0512 37.4103 24.7404 35.6486 24.7404 34.1979C24.7404 32.799 25.0512 31.685 25.6212 30.8042C26.1134 30.0011 26.8129 29.4053 27.6159 28.939C28.7299 28.2913 30.077 27.9545 31.5019 27.7732V27.6436H5.0776C5.02579 27.7732 4.97398 27.9027 4.94807 28.0063C6.11385 28.2136 7.176 28.5245 8.10862 28.939C12.8754 30.9596 15.0515 35.3119 17.668 41.6589L17.2535 40.6226L35.4396 83.3159V83.3419H36.0613L36.4499 82.4092L53.5221 40.6485L53.1076 41.6848C53.6516 40.3636 54.1697 39.146 54.7397 37.9802C55.6464 36.0891 56.6308 34.4311 57.7448 33.0321C59.1696 31.2446 60.8535 29.8716 63.0037 28.9649C63.8845 28.6022 64.8431 28.2913 65.8793 28.0841C65.8275 27.9545 65.7757 27.7991 65.7239 27.6696H45.4394V27.6177Z" fill="currentColor"/>
        <path d="M55.5428 11.8668L55.4391 11.8927C55.3873 11.8409 55.3096 11.815 55.2578 11.7632C55.3355 11.815 55.4391 11.8409 55.5428 11.8668Z" fill="currentColor"/>
        <path d="M70.7756 109.999V40.0527C70.7756 35.83 70.0502 31.7368 68.5995 27.825C68.5735 27.7473 68.5476 27.6955 68.5217 27.6177C68.2627 26.9183 67.9777 26.2447 67.6668 25.5712L67.6409 25.5193C67.615 25.4675 67.5891 25.4157 67.5891 25.3639C65.5684 20.934 62.667 17.048 59.1955 13.8616C58.6774 13.7839 58.1334 13.7061 57.6153 13.5766C61.4753 16.8149 64.6617 20.934 66.8378 25.7007C66.8637 25.7525 66.8637 25.7784 66.8897 25.8302L66.9156 25.882C67.1487 26.4002 67.356 26.8924 67.5632 27.4105C67.6927 27.7473 67.8223 28.11 67.9518 28.4467C69.273 32.1513 69.9207 36.0113 69.9207 40.0009V109.947C69.9207 123.522 62.0711 135.284 50.6465 140.931C48.0041 142.252 45.1803 143.211 42.2011 143.833C42.3306 143.988 42.4602 144.144 42.5638 144.325L42.2788 144.662C45.4135 144.04 48.3927 143.004 51.1646 141.605C62.8224 135.802 70.7756 123.807 70.7756 109.999Z" fill="currentColor"/>
        <path d="M14.637 138.263C14.2484 138.082 13.8598 137.926 13.4712 137.771C13.808 138.056 14.1707 138.315 14.5333 138.574C14.5852 138.548 14.637 138.496 14.6888 138.47C14.6629 138.444 14.6111 138.418 14.5852 138.366L14.637 138.263Z" fill="currentColor"/>
        <path d="M26.4502 6.65968C24.7145 7.12599 23.0306 7.72183 21.3985 8.4472C19.5332 9.2762 17.7198 10.2865 16.01 11.4264C10.8288 14.9237 6.60607 19.82 3.91183 25.7007L3.88592 25.7266C3.86001 25.7525 3.86001 25.8043 3.83411 25.8302C3.60095 26.3483 3.3937 26.8665 3.18646 27.3846C3.05692 27.7214 2.92739 28.0841 2.79786 28.4208C2.74605 28.5763 2.69424 28.7317 2.64243 28.8871C2.61652 28.939 2.59061 29.0167 2.56471 29.0944C1.39893 32.5917 0.80309 36.2445 0.80309 40.0009V109.947C0.80309 119.17 4.40404 127.849 10.9324 134.377C11.2433 134.688 11.58 134.999 11.8909 135.31C11.3728 135.18 10.8547 135.051 10.3365 134.973C3.67867 128.315 0 119.429 0 109.999V40.0527C0 35.001 1.03625 30.1306 3.10874 25.5453C3.10874 25.5193 3.13464 25.4675 3.16055 25.4157L3.18646 25.3898C5.9066 19.3537 10.2588 14.3538 15.5437 10.7788C16.3986 10.2088 17.2794 9.66479 18.1861 9.14667C20.699 7.74773 23.3673 6.65968 26.1652 5.9084L26.0098 6.14155C26.1393 6.29699 26.2947 6.47833 26.4502 6.65968Z" fill="currentColor"/>
        <path d="M39.0406 144.791C39.1183 144.765 39.1701 144.765 39.2478 144.739C39.9473 144.532 40.6467 144.403 41.3203 144.299C41.2167 144.221 41.0871 144.169 40.9835 144.092C39.2219 144.377 37.4344 144.532 35.595 144.532C35.5432 144.532 35.4655 144.532 35.4137 144.532C34.8438 144.532 34.2479 144.506 33.678 144.48C33.6521 144.584 33.4966 145.024 33.393 145.154C33.3671 145.18 33.3412 145.206 33.3153 145.258C33.3153 145.283 33.2894 145.283 33.2894 145.283C33.9889 145.335 34.7142 145.361 35.4137 145.361C35.4914 145.361 35.5691 145.361 35.6209 145.361C35.88 145.361 36.1132 145.361 36.3722 145.361C36.7867 145.361 37.2271 145.335 37.6416 145.309C38.0302 145.128 38.5224 144.921 39.0406 144.791Z" fill="currentColor"/>
        <path d="M25.6989 143.392C25.6989 143.392 25.5953 143.936 25.0771 143.729C24.559 143.522 24.1186 142.978 24.1186 142.978C23.8336 142.796 23.5746 142.589 23.2896 142.382C22.6679 142.149 22.0461 141.89 21.4244 141.631C19.326 140.698 17.3312 139.584 15.466 138.237C15.4401 138.392 15.3882 138.703 15.181 138.962C15.1551 138.988 15.1292 138.988 15.1292 139.014C16.5022 139.973 17.927 140.828 19.4037 141.579C19.7146 141.605 20.0254 141.657 20.3622 141.708L21.9425 141.993C21.9425 141.993 22.2016 142.356 21.9943 142.615C21.9425 142.667 21.8648 142.667 21.7871 142.667C21.7612 142.667 21.7353 142.667 21.7093 142.641C24.1963 143.677 26.8129 144.454 29.533 144.895C29.7662 144.817 30.0252 144.765 30.2584 144.713C30.2584 144.713 30.2584 144.713 30.2325 144.713C30.2066 144.688 30.1807 144.688 30.1547 144.688H30.1288C30.1288 144.688 30.1288 144.688 30.1029 144.688C29.7662 144.558 28.9631 144.247 28.3154 143.859C27.4087 143.677 26.502 143.444 25.6212 143.185C25.6471 143.211 25.6989 143.315 25.6989 143.392Z" fill="currentColor"/>
        <path d="M53.8071 9.84613C53.7552 9.89794 53.7034 9.94976 53.6516 10.0016C53.5221 10.2088 53.4703 10.4161 53.4444 10.5974C51.89 9.63888 50.2838 8.80989 48.5999 8.11042C47.486 7.64411 46.372 7.25552 45.2321 6.91874C44.999 6.7633 44.7917 6.63377 44.5586 6.47833C44.5586 6.47833 44.0923 5.96021 43.5482 5.77887C43.0301 5.59753 42.9524 6.14155 42.9524 6.14155C42.9524 6.21927 42.9783 6.27108 43.0301 6.3229C42.1234 6.11565 41.2167 5.93431 40.284 5.80477C39.6364 5.46799 38.8592 5.20893 38.5483 5.10531C38.5483 5.10531 38.5483 5.10531 38.5224 5.10531H38.4965C38.4706 5.10531 38.4447 5.0794 38.4188 5.0794H38.3929C38.652 5.00168 38.911 4.92397 39.1442 4.84625C41.9679 5.15712 44.714 5.77887 47.3305 6.7374C47.201 6.71149 47.0715 6.71149 46.9419 6.68558C46.8642 6.68558 46.7865 6.71149 46.7347 6.7374C46.5274 6.99646 46.8124 7.33324 46.8124 7.33324L48.3927 7.54049C48.7813 7.56639 49.1958 7.5923 49.5844 7.6182C50.1802 7.87727 50.776 8.16223 51.346 8.4472C52.175 8.8876 53.004 9.35391 53.8071 9.84613Z" fill="currentColor"/>
        <path d="M35.2842 4.6649C35.2842 4.6649 35.2842 4.69081 35.2583 4.69081C35.2324 4.71672 35.2064 4.76853 35.1805 4.79444C35.0769 4.94987 34.9215 5.44209 34.9215 5.4939C34.4034 5.4939 33.8852 5.51981 33.393 5.54571C31.476 5.64934 29.6107 5.93431 27.7714 6.3488C27.6159 6.27109 27.4605 6.19337 27.3051 6.11565C27.9527 5.98612 28.6522 5.80477 29.3257 5.54571C29.3776 5.51981 29.4553 5.4939 29.533 5.46799C29.9734 5.33846 30.4138 5.13122 30.7765 4.94987C31.6314 4.84625 32.4863 4.74262 33.3412 4.71672C33.9889 4.69081 34.6365 4.6649 35.2842 4.6649Z" fill="currentColor"/>
        <path d="M28.4449 6.65968C28.2118 6.55605 27.9786 6.45243 27.7714 6.3488C27.6159 6.27109 27.4605 6.19337 27.3051 6.11565C27.9527 5.98612 28.6522 5.80477 29.3257 5.54571C29.3776 5.51981 29.4553 5.4939 29.533 5.46799C29.9734 5.33846 30.4138 5.13122 30.7765 4.94987C30.906 4.89806 31.0096 4.84625 31.0874 4.79444C31.3982 4.639 31.5796 4.50947 31.5796 4.50947C33.0303 3.62866 34.222 2.35926 34.5847 0.442204C34.6365 0.234955 34.4552 -0.0241068 34.2479 0.0017993C31.1133 0.442204 28.419 2.30745 26.6056 5.20893L26.4502 5.41618L26.1134 5.88249L25.958 6.11565C26.1134 6.29699 26.2688 6.47833 26.4243 6.65968C26.5538 6.81511 26.6833 6.97055 26.8129 7.12599C29.7921 10.5715 33.0303 13.6543 36.5018 16.4263C36.6313 16.5299 36.8644 16.4263 36.9162 16.2709C39.2737 10.1311 32.3309 8.31767 28.4449 6.65968ZM33.8593 0.830796C33.2117 2.90329 31.3723 4.06906 29.4553 4.74262C28.8076 4.82034 28.16 4.92397 27.5123 5.0535C29.1185 2.79966 31.3464 1.32301 33.8593 0.830796ZM36.1909 14.8719C34.6624 14.9237 32.2531 11.8668 31.1133 10.7528C29.9475 9.58707 28.8076 8.36948 27.7196 7.10008C29.0667 7.74774 30.4656 8.16223 31.8646 8.70626C33.0303 9.17257 34.2479 9.74251 35.1805 10.7269C35.7764 11.3228 37.823 14.8201 36.1909 14.8719Z" fill="currentColor"/>
        <path d="M51.7605 16.3486C51.4237 16.1413 51.0869 15.9341 50.7501 15.7786C50.5429 16.8667 49.0144 16.789 48.859 15.5196C48.4186 15.7009 48.0041 16.8149 47.46 16.789C46.9937 16.789 46.6311 16.3486 46.4756 15.8823C46.087 14.4833 47.201 12.7217 48.03 11.7114C48.03 11.6596 48.0041 11.6337 48.0041 11.6077C47.9005 11.4782 47.8745 11.3487 47.9005 11.2192C47.3823 9.53526 46.1906 8.39539 44.8435 7.48867C44.2736 7.10008 43.7037 6.7633 43.1337 6.45243C43.0819 6.42652 43.056 6.40062 43.0301 6.3488C42.9783 6.29699 42.9783 6.21927 42.9524 6.16746C42.9524 6.16746 43.0301 5.59753 43.5482 5.80477C44.0663 5.98612 44.5586 6.50424 44.5586 6.50424C44.7917 6.63377 45.0249 6.78921 45.2321 6.94464C45.8021 7.33324 46.3202 7.74773 46.8124 8.23995C47.5896 9.04304 48.2372 10.0016 48.574 11.2192C49.9729 12.5663 51.1905 14.1206 52.2268 15.8564C52.4081 16.1931 52.0972 16.5817 51.7605 16.3486Z" fill="currentColor"/>
        <path d="M61.553 7.10008C59.8691 7.48867 58.1852 7.46277 56.5013 7.02236C54.8433 7.38505 53.1853 7.5923 51.5273 7.64411C50.8797 7.67002 50.2061 7.67002 49.5584 7.64411C49.1699 7.6182 48.7554 7.5923 48.3668 7.56639L46.7865 7.35914C46.7865 7.35914 46.5015 6.99646 46.7088 6.7633C46.7606 6.71149 46.8383 6.68558 46.916 6.71149C47.0456 6.7374 47.1751 6.7374 47.3046 6.7633C48.1336 6.86693 48.9885 6.94464 49.8175 6.97055C52.0195 7.04827 54.2215 6.84102 56.4236 6.3229C56.4236 6.3229 56.4495 6.3229 56.4754 6.3229C56.579 6.29699 56.6567 6.29699 56.7604 6.27109C56.5013 4.92397 56.7863 3.62866 57.5893 2.59241C57.7189 2.41107 57.9779 2.43698 58.0816 2.64423C58.4443 3.21416 58.9883 3.3955 59.5323 3.18825C59.895 3.05872 60.0763 3.60275 59.8173 3.83591C59.9986 4.40584 60.2577 4.639 60.6204 4.56128C60.7499 4.56128 60.8794 4.53537 61.009 4.48356C61.2421 4.43175 61.4235 4.79444 61.3198 5.02759C61.2162 5.20893 61.1385 5.36437 61.0349 5.54571C61.2939 5.85659 61.5271 6.19337 61.7343 6.58196C61.812 6.7374 61.7602 7.04827 61.553 7.10008Z" fill="currentColor"/>
        <path d="M41.0353 6.37471C41.0094 6.37471 41.0094 6.3488 40.9835 6.3488C40.8022 6.16746 40.5431 5.98612 40.2581 5.83068C39.6105 5.4939 38.8333 5.23484 38.5224 5.13121C38.5224 5.13121 38.5224 5.13121 38.4965 5.13121H38.4706C38.4447 5.13121 38.4188 5.10531 38.3929 5.10531H38.367C38.6261 5.02759 38.8851 4.94987 39.1183 4.87215C39.2478 4.82034 39.3514 4.79443 39.481 4.74262C41.0353 4.14678 42.4343 3.16235 43.3669 1.42664C43.4964 1.16758 43.2892 0.908514 43.056 0.882608C40.1027 0.778983 37.4085 2.07429 35.4137 4.50947C35.3619 4.53537 35.3101 4.61309 35.2583 4.6649C35.2583 4.6649 35.2583 4.69081 35.2323 4.69081C35.2064 4.71672 35.1805 4.76853 35.1546 4.79444C35.051 4.94987 34.8956 5.44209 34.8956 5.4939C34.8956 5.51981 34.9215 5.54571 34.9215 5.57162C37.0199 8.68036 39.8695 10.8047 43.1596 11.7373C43.3669 11.7891 43.5482 11.6077 43.5482 11.3746C43.5741 8.99123 42.512 7.43686 41.0353 6.37471ZM42.4343 1.60798C41.139 3.52503 39.0924 4.25041 37.0199 4.639C36.9681 4.639 36.9162 4.6649 36.8644 4.6649C36.8644 4.6649 36.8644 4.6649 36.8385 4.6649C36.8126 4.6649 36.7608 4.639 36.7349 4.639C36.5795 4.61309 36.3981 4.56128 36.2427 4.53537C37.9266 2.72194 40.0768 1.7116 42.4343 1.60798ZM35.8023 5.62343C35.8541 5.59753 35.9059 5.57162 35.9836 5.57162C36.8126 5.64934 37.6157 5.72706 38.4447 5.85659C38.5224 5.88249 38.6001 5.9084 38.652 5.93431C40.8022 6.71149 42.7192 8.13633 42.9006 10.9083C40.1027 10.0016 37.6675 8.21405 35.8023 5.62343Z" fill="currentColor"/>
        <path d="M64.7135 11.6855C64.0141 9.3021 61.009 9.40573 59.2733 9.17257C57.7966 8.99123 56.0868 8.60264 54.7138 9.22439C54.4288 9.35392 54.1697 9.50935 53.9366 9.74251C53.8848 9.76841 53.8589 9.82023 53.833 9.84613C53.7811 9.89794 53.7293 9.94976 53.6775 10.0016C53.548 10.2088 53.4962 10.4161 53.4703 10.5974C53.4444 10.7528 53.4444 10.8824 53.4444 10.8824C53.3926 11.1933 53.3666 11.5041 53.3407 11.815C52.9003 16.6076 53.9366 21.2966 56.3718 25.338C56.5531 25.623 56.864 25.5193 56.9417 25.2085C57.4339 23.4209 57.6153 21.6075 57.5116 19.8459C57.408 17.5921 56.8381 15.416 55.8795 13.4471C55.8277 13.3176 55.75 13.188 55.6982 13.0585C55.5169 12.7476 55.3355 12.4108 55.1542 12.1C55.1283 12.0741 55.1024 12.0222 55.0765 11.9963C55.0505 11.9704 55.0246 11.9186 54.9987 11.8927C54.9987 11.8927 54.9987 11.8668 54.9728 11.8668C54.921 11.7891 54.8692 11.7114 54.8174 11.6337C54.921 11.6596 55.0246 11.6855 55.1283 11.7373C55.1542 11.7373 55.206 11.7632 55.2319 11.7632C55.3355 11.7891 55.4391 11.815 55.5169 11.8668C56.6049 12.1777 57.693 12.4108 58.781 12.5145C59.066 12.5404 59.351 12.5663 59.6359 12.5922C61.0349 12.6699 62.4597 12.5663 63.8845 12.3072C64.0918 12.2554 64.3249 12.2295 64.5322 12.1777C64.6358 12.1518 64.7135 12.0222 64.7394 11.8927C64.7394 11.815 64.7394 11.7373 64.7135 11.6855ZM55.3614 13.8616C56.864 16.9962 57.3044 20.649 56.5013 24.2499C56.0868 23.4728 55.6982 22.6956 55.3873 21.8666C54.7138 20.1827 54.2734 18.447 54.0402 16.6594C53.8589 15.2087 53.833 13.7321 53.9366 12.2554C53.9625 12.0222 53.9625 11.7891 53.9884 11.5559C54.0661 11.6855 54.1438 11.7891 54.2215 11.9186C54.662 12.5404 55.0246 13.188 55.3614 13.8616ZM62.9778 11.7373C62.9519 11.7632 62.926 11.7891 62.9001 11.815C62.1747 12.3072 59.9209 12.0482 58.6774 11.8409C58.3924 11.7891 58.1593 11.7632 58.0298 11.7373C57.9779 11.7373 57.9261 11.7114 57.8743 11.7114C57.4857 11.6596 57.123 11.5818 56.7344 11.4782C56.4754 11.4005 56.1904 11.3487 55.9314 11.2451C55.3614 11.0637 54.7915 10.8824 54.2475 10.6492L54.3252 10.5456C54.2993 10.5197 54.2475 10.4938 54.2215 10.442C54.2993 10.3643 54.377 10.2865 54.4806 10.2088C54.5324 10.157 54.5842 10.1311 54.636 10.1052C54.921 9.89795 55.2578 9.79432 55.5946 9.6907C56.864 9.37982 58.3406 9.74251 59.5323 9.89795C60.1541 9.97566 62.9519 10.2088 63.2628 11.0119C63.3146 11.2451 63.2369 11.4782 62.9778 11.7373Z" fill="currentColor"/>
        <path d="M42.2529 143.859C42.1752 143.755 42.0975 143.651 42.0198 143.548C39.1701 139.869 36.0613 136.501 32.6676 133.496C32.5381 133.367 32.305 133.47 32.2272 133.626C29.4812 139.843 36.9162 141.942 40.569 143.885C40.6985 143.962 40.8281 144.04 40.9576 144.092C41.0871 144.169 41.1908 144.221 41.2944 144.299C40.6467 144.403 39.9473 144.558 39.2219 144.739C39.1701 144.765 39.0924 144.791 39.0146 144.791C38.5224 144.921 38.0043 145.128 37.6157 145.283C37.5639 145.309 37.5121 145.335 37.4603 145.361C37.1235 145.517 36.9162 145.62 36.9162 145.62C35.4137 146.423 34.1443 147.641 33.678 149.532C33.6262 149.739 33.7816 150.024 33.9889 149.998C37.1494 149.713 39.9214 148.004 41.9161 145.206L42.0457 145.05L42.3565 144.662L42.6415 144.325C42.4861 144.195 42.3824 144.014 42.2529 143.859ZM36.8903 141.449C35.7505 140.931 34.5588 140.284 33.678 139.273C33.134 138.626 31.2687 135.025 32.9008 135.076C34.4293 135.128 36.6831 138.289 37.7452 139.48C38.8592 140.698 39.9214 141.993 40.9576 143.315C39.6105 142.563 38.2375 142.071 36.8903 141.449ZM34.4552 149.195C35.2064 147.175 37.1235 146.112 39.0406 145.517C39.6882 145.465 40.3359 145.387 41.0094 145.309C39.2996 147.485 37.0199 148.858 34.4552 149.195Z" fill="currentColor"/>
        <path d="M23.2896 142.382C23.5487 142.589 23.8336 142.796 24.1186 142.978C24.1186 142.978 24.559 143.522 25.0771 143.729C25.5953 143.936 25.6989 143.392 25.6989 143.392C25.6989 143.289 25.6471 143.211 25.5953 143.133C25.5694 143.107 25.5694 143.107 25.5435 143.081C24.844 142.641 24.1445 142.175 23.4969 141.657C22.3829 140.75 21.4244 139.61 21.0358 138.082C21.0617 137.952 21.0617 137.797 20.9581 137.693C20.9581 137.667 20.9322 137.615 20.9322 137.589C21.7871 136.605 23.0306 134.947 22.6938 133.522C22.5902 133.03 22.2275 132.589 21.7612 132.564C21.2171 132.538 20.7249 133.6 20.2845 133.755C20.1809 132.486 18.6524 132.33 18.4193 133.393C18.0825 133.185 17.7457 132.978 17.4348 132.745C17.124 132.512 16.8131 132.874 16.9944 133.237C17.927 135.025 19.0669 136.631 20.3881 138.056C20.6213 139.144 21.1135 140.076 21.7353 140.853C22.1757 141.423 22.7197 141.916 23.2896 142.382Z" fill="currentColor"/>
        <path d="M21.7612 142.641C21.8389 142.667 21.9166 142.641 21.9684 142.589C22.2016 142.356 21.9166 141.967 21.9166 141.967L20.3363 141.682C20.0254 141.631 19.7146 141.605 19.3778 141.553C19.326 141.553 19.3001 141.553 19.2483 141.527C18.5229 141.449 17.7975 141.423 17.0981 141.398C15.466 141.372 13.8339 141.475 12.1759 141.76C10.5179 141.242 8.83399 141.138 7.12419 141.398C6.91694 141.423 6.83922 141.76 6.94285 141.942C7.12419 142.33 7.33144 142.667 7.5905 143.004C7.48687 143.185 7.38325 143.34 7.27963 143.522C7.15009 143.729 7.33144 144.118 7.56459 144.066C7.69412 144.04 7.82365 144.014 7.97909 144.014C8.34178 143.936 8.60084 144.195 8.75628 144.791C8.49721 145.024 8.62674 145.568 8.98943 145.465C9.55937 145.283 10.0775 145.491 10.4143 146.087C10.5179 146.294 10.751 146.32 10.9065 146.164C11.7614 145.18 12.1241 143.91 11.9427 142.537C12.0464 142.511 12.1241 142.511 12.2277 142.486C12.2536 142.486 12.2536 142.486 12.2795 142.486C14.4556 142.123 16.6058 142.019 18.756 142.201C19.7405 142.278 20.7249 142.408 21.7093 142.615C21.7093 142.641 21.7353 142.641 21.7612 142.641Z" fill="currentColor"/>
        <path d="M13.3417 123.496C13.1862 123.211 12.8494 123.289 12.7717 123.574C11.7873 126.605 11.6578 129.74 12.3054 132.667C12.5904 133.962 13.0567 135.232 13.6525 136.424C13.7821 136.708 13.9375 136.968 14.0929 137.227C14.0929 137.227 14.0929 137.253 14.1188 137.253C14.0929 137.253 14.0929 137.253 14.067 137.227C12.979 136.786 11.8909 136.475 10.777 136.242C10.3625 136.164 9.94796 136.087 9.53346 136.061C7.97909 135.88 6.37291 135.905 4.76673 136.164C4.66311 136.19 4.55948 136.19 4.45586 136.216C4.27451 136.242 4.19679 136.501 4.24861 136.657C4.30042 136.838 4.35223 137.019 4.42995 137.175C5.28485 139.066 7.97909 139.17 9.55937 139.455C11.036 139.714 12.7199 140.206 14.1188 139.662C14.4038 139.558 14.6888 139.403 14.9219 139.195C14.9997 139.144 15.0774 139.066 15.1292 139.014C15.1551 138.988 15.1551 138.988 15.181 138.962C15.3623 138.703 15.4401 138.392 15.4401 138.237C15.4401 138.159 15.4401 138.107 15.4401 138.107C15.466 138.03 15.466 137.952 15.4919 137.848C15.5437 137.537 15.5955 137.227 15.6473 136.89C16.295 132.227 15.5178 127.59 13.3417 123.496ZM14.5333 138.574C14.4556 138.651 14.352 138.703 14.2484 138.755C13.9375 138.936 13.6266 139.04 13.2898 139.118C12.0204 139.377 10.5179 138.911 9.35212 138.703C8.88581 138.6 7.09828 138.367 6.19157 137.874C5.72526 137.615 5.51801 137.33 5.77707 136.942C5.82888 136.864 5.88069 136.812 5.98432 136.734C6.65788 136.139 9.19668 136.631 10.4402 136.89C10.6474 136.942 10.8288 136.968 10.9324 136.993C11.2433 137.045 11.5282 137.123 11.8391 137.201C12.2277 137.304 12.6163 137.434 13.0049 137.589C13.1603 137.641 13.3158 137.719 13.4971 137.771C13.8857 137.926 14.2743 138.082 14.6629 138.263L14.5852 138.366C14.6111 138.392 14.6629 138.418 14.6888 138.47C14.637 138.522 14.5852 138.548 14.5333 138.574ZM15.0774 136.424C15.0256 136.734 14.9997 137.071 14.9478 137.382C14.8183 137.175 14.6888 136.993 14.5852 136.786C14.3779 136.449 14.2225 136.113 14.0411 135.75C13.9893 135.62 13.9116 135.491 13.8598 135.335C12.3831 132.045 12.1241 128.263 13.1344 124.584C14.896 128.263 15.5696 132.304 15.0774 136.424Z" fill="currentColor"/>
        <path d="M33.6262 144.403C33.6262 144.377 33.6003 144.377 33.6003 144.351C31.6573 141.164 28.9631 138.911 25.7507 137.797C25.5435 137.719 25.3621 137.926 25.3621 138.159C25.2326 140.439 26.1134 141.993 27.4087 143.133C27.4864 143.211 27.5641 143.263 27.6418 143.34C27.7973 143.522 28.0304 143.703 28.2636 143.859C28.8853 144.247 29.7143 144.584 30.0511 144.688C30.0511 144.688 30.0511 144.688 30.077 144.688H30.1029C30.1288 144.688 30.1547 144.713 30.1807 144.713H30.2066C29.9734 144.765 29.7143 144.817 29.4812 144.895C29.2221 144.973 28.989 145.05 28.7558 145.128C27.2792 145.646 25.958 146.553 25.0253 148.107C24.8699 148.366 25.0771 148.625 25.2844 148.651C28.2118 148.936 30.9837 147.77 33.108 145.465L33.134 145.439C33.1858 145.413 33.2117 145.361 33.2376 145.309C33.2376 145.283 33.2635 145.283 33.2635 145.258C33.2894 145.232 33.3153 145.206 33.3412 145.154C33.4448 145.024 33.6003 144.584 33.6262 144.48C33.6262 144.454 33.6262 144.454 33.6262 144.454C33.6521 144.454 33.6521 144.429 33.6262 144.403ZM32.2272 145.413C30.4656 147.123 28.2895 148.004 25.958 147.952C27.1755 146.346 28.9372 145.672 30.7506 145.335C31.0615 145.283 31.3723 145.232 31.6832 145.18C31.8905 145.232 32.0977 145.283 32.305 145.335C32.279 145.361 32.2531 145.387 32.2272 145.413ZM32.6158 144.351C31.7868 144.247 30.9837 144.092 30.1807 143.936C29.9734 143.859 29.7921 143.781 29.6107 143.677C27.6678 142.771 26.0357 141.268 26.0098 138.651C28.7299 139.688 31.0356 141.605 32.7713 144.247C32.7972 144.273 32.8231 144.299 32.8231 144.351C32.7454 144.351 32.6676 144.351 32.6158 144.351Z" fill="currentColor"/>
    </symbol>

    <symbol id="ramo" viewBox="0 0 81 42" fill="none" xmlns="http://www.w3.org/2000/svg">
        <path d="M81.0001 19.2162C79.8524 15.3056 74.9215 15.4756 72.0735 15.093C69.6506 14.7955 66.8451 14.1579 64.5923 15.178C64.1247 15.3906 63.6996 15.6456 63.317 16.0282C63.232 16.0707 63.1895 16.1557 63.147 16.1982C61.8293 15.3906 60.4691 14.6254 59.0663 13.9028C58.1312 13.4352 57.1535 12.9677 56.1758 12.5426C57.2385 12.5851 58.3437 12.5851 59.4064 12.5426C62.1268 12.4576 64.8473 12.1175 67.5678 11.5224C70.3307 12.245 73.0937 12.245 75.8567 11.6499C76.1967 11.5649 76.2818 11.0548 76.1117 10.7573C75.7717 10.1197 75.3891 9.60959 74.964 9.05699C75.1341 8.75944 75.2616 8.5044 75.4316 8.20685C75.6441 7.86679 75.3041 7.27169 74.9215 7.3142C74.709 7.3567 74.4965 7.39921 74.2839 7.44172C73.6888 7.56924 73.2637 7.18668 72.9662 6.25152C73.3913 5.82644 73.0937 4.93379 72.4986 5.18884C71.606 5.52889 70.7133 5.23134 70.1182 4.29618C69.9057 3.95613 69.5231 3.91362 69.3106 4.21117C67.9928 5.91146 67.5253 8.03682 67.9503 10.2472C67.8228 10.2897 67.6528 10.2897 67.4828 10.3322C67.4403 10.3322 67.4402 10.3322 67.3977 10.3322C63.7846 11.1398 60.214 11.4799 56.5584 11.3949C55.1982 11.3524 53.8379 11.2249 52.4352 11.0548C48.142 9.52457 43.6362 8.46189 39.0029 7.95181C39.2154 7.86679 39.3855 7.82428 39.598 7.73927C42.1484 6.7616 44.4438 5.14633 45.9741 2.29834C46.1866 1.87327 45.8466 1.4482 45.464 1.40569C40.6182 1.27817 36.1549 3.44604 32.9244 7.39921C32.8394 7.44172 32.7543 7.56924 32.6693 7.65425C31.6066 7.65425 30.544 7.69676 29.5238 7.73927C28.1211 7.82428 26.7183 7.95181 25.3156 8.12183C25.5281 8.03682 25.6981 7.95181 25.8257 7.86679C26.3357 7.61175 26.6333 7.39921 26.6333 7.39921C29.0137 5.95397 30.969 3.87111 31.5641 0.725575C31.6492 0.385517 31.3516 -0.0395549 31.0115 0.00295233C25.9107 0.768083 21.4899 3.8286 18.4719 8.58941L18.2169 8.92947L17.7068 9.6946C13.116 10.9273 8.73775 12.7551 4.61455 15.008C3.12679 15.8156 1.68155 16.7083 0.278809 17.686L1.08645 18.7912C3.89192 16.9208 6.82492 15.2631 9.92795 13.9028C12.6059 12.7126 15.3689 11.735 18.2169 10.9698C18.4294 11.2249 18.6419 11.4799 18.8545 11.735C23.7428 17.3884 29.0562 22.4468 34.7522 26.995C34.9647 27.1651 35.3473 26.995 35.4323 26.74C39.2579 16.6658 27.8235 13.7328 21.4899 10.9698C21.1074 10.7998 20.7248 10.6298 20.3847 10.4597C23.4027 9.77962 26.4633 9.35454 29.6088 9.14201C30.459 9.0995 31.3091 9.05699 32.1167 9.05699C32.1167 9.0995 32.1592 9.14201 32.1592 9.18451C35.6023 14.2854 40.2781 17.771 45.6765 19.3012C46.0166 19.3863 46.3142 19.0887 46.3142 18.7061C46.3567 14.7955 44.6139 12.245 42.1484 10.5022C42.1059 10.5022 42.1059 10.4597 42.0634 10.4597C41.7659 10.1622 41.3408 9.86463 40.8732 9.60959C42.4035 9.82212 43.8912 10.1197 45.379 10.4597C45.4215 10.5447 45.464 10.5873 45.549 10.6298C46.4842 11.1398 47.4618 11.6924 48.3545 12.3301C50.5649 13.8178 52.5202 15.6456 53.3704 18.4511C53.3278 18.6636 53.3704 18.9187 53.5404 19.0887C53.5404 19.1312 53.5829 19.2162 53.5829 19.2587C52.2652 20.9165 50.3948 23.807 51.0325 26.1024C51.245 26.91 51.8826 27.5902 52.6477 27.5902C53.5829 27.5902 54.263 25.8048 54.9431 25.5073C55.2407 27.5901 57.7486 27.7177 58.0461 25.9324C58.5987 26.2299 59.1513 26.5275 59.7039 26.8675C60.2565 27.2076 60.7241 26.6125 60.384 26.0174C58.6838 23.1694 56.6859 20.6615 54.3905 18.4086C53.8379 16.4107 52.8178 14.838 51.5 13.5203C50.6924 12.7126 49.8423 12.0325 48.9071 11.3949C50.7774 11.9475 52.6477 12.6276 54.433 13.3502C57.196 14.4979 59.874 15.8582 62.3819 17.4309C62.3394 17.686 62.3394 17.8985 62.3394 17.8985C62.2544 18.4086 62.2119 18.9187 62.1694 19.4288C61.4467 27.2926 63.147 34.9864 67.1427 41.6175C67.4402 42.0851 67.9503 41.9151 68.0779 41.405C68.8855 38.472 69.183 35.4965 69.013 32.606C68.843 28.9079 67.9078 25.3373 66.3351 22.1067C66.25 21.8942 66.1225 21.6816 66.0375 21.4691C65.74 20.959 65.4424 20.4064 65.1449 19.8963C65.1024 19.8538 65.0598 19.7688 65.0173 19.7263C64.9748 19.6838 64.9323 19.5988 64.8898 19.5563C64.8898 19.5563 64.8898 19.5138 64.8473 19.5138C64.7623 19.3863 64.6773 19.2587 64.5923 19.1312C64.7623 19.1737 64.9323 19.2162 65.1023 19.3012C65.1449 19.3012 65.2299 19.3437 65.2724 19.3437C65.3574 19.4288 65.4849 19.4713 65.5699 19.5563L65.74 19.5138C67.5253 20.0239 69.3106 20.4064 71.0959 20.5765C71.5635 20.619 72.031 20.6615 72.4986 20.704C74.794 20.8315 77.1319 20.6615 79.4698 20.2364C79.8099 20.1514 80.1924 20.1089 80.5325 20.0239C80.7025 19.9814 80.83 19.7688 80.8725 19.5563C81.0001 19.4288 81.0001 19.3012 81.0001 19.2162ZM30.3314 1.40569C29.2687 4.80627 26.2507 6.7191 23.1052 7.82428C22.0425 7.95181 20.9798 8.12183 19.9172 8.33437C22.5526 4.63624 26.2082 2.21333 30.3314 1.40569ZM27.0584 14.3279C28.9712 15.093 30.969 16.0282 32.4993 17.6435C33.477 18.6636 36.7925 24.3596 34.1146 24.4446C31.6066 24.5296 27.6535 19.5138 25.7832 17.686C23.9128 15.7731 22.085 13.7328 20.2572 11.6924C22.4676 12.7551 24.8055 13.4352 27.0584 14.3279ZM44.4013 2.68091C42.276 5.82644 38.9179 7.01665 35.5173 7.65425C35.4323 7.65425 35.3473 7.69676 35.2623 7.69676H35.2198C35.1772 7.69676 35.0922 7.65425 35.0497 7.65425C34.7947 7.61175 34.4971 7.52673 34.2421 7.48423C37.0051 4.50872 40.5332 2.85094 44.4013 2.68091ZM45.1665 17.941C40.5757 16.4958 36.58 13.5203 33.5195 9.26953C33.5195 9.26953 33.5195 9.22702 33.477 9.22702C33.6045 9.22702 33.6895 9.18451 33.817 9.18451C35.1773 9.31204 36.495 9.43956 37.8552 9.65209C37.9827 9.6946 38.1103 9.73711 38.1953 9.77962C41.7234 11.0548 44.8689 13.3927 45.1665 17.941ZM65.6124 22.7868C68.0779 27.9302 68.8005 33.9237 67.4828 39.8322C66.8026 38.557 66.165 37.2818 65.6549 35.9216C64.5498 33.1586 63.8271 30.3106 63.4446 27.3776C63.147 24.9972 63.1045 22.5743 63.2745 20.1514C63.317 19.7688 63.317 19.3863 63.3596 19.0037C63.4871 19.2162 63.6146 19.3863 63.7421 19.5988C64.4647 20.619 65.1023 21.6816 65.6124 22.7868ZM78.1521 19.3012C78.1096 19.3437 78.0671 19.3863 78.0246 19.4288C76.8343 20.2364 73.1362 19.8113 71.0959 19.4713C70.6283 19.3863 70.2457 19.3437 70.0332 19.3012C69.9482 19.3012 69.8632 19.2587 69.7781 19.2587C69.1405 19.1737 68.5454 19.0462 67.9078 18.8762C67.4828 18.7486 67.0152 18.6636 66.5901 18.4936C65.6549 18.1961 64.7198 17.8985 63.8271 17.5159L63.9547 17.3459C63.9121 17.3034 63.8271 17.2609 63.7846 17.1759C63.9121 17.0484 64.0397 16.9208 64.2097 16.7933C64.2947 16.7083 64.3797 16.6658 64.4647 16.6233C64.9323 16.2832 65.4849 16.1132 66.0375 15.9432C68.1204 15.4331 70.5433 16.0282 72.4986 16.2832C73.5188 16.4107 78.1096 16.7933 78.6197 18.111C78.6622 18.4936 78.5771 18.8762 78.1521 19.3012Z" fill="currentColor"/>
    </symbol>

    <symbol id="close" viewBox="0 0 24 24" fill="currentColor" xmlns="http://www.w3.org/2000/svg">
        <path fillRule="evenodd" d="M5.47 5.47a.75.75 0 0 1 1.06 0L12 10.94l5.47-5.47a.75.75 0 1 1 1.06 1.06L13.06 12l5.47 5.47a.75.75 0 1 1-1.06 1.06L12 13.06l-5.47 5.47a.75.75 0 0 1-1.06-1.06L10.94 12 5.47 6.53a.75.75 0 0 1 0-1.06Z" clipRule="evenodd" />
    </symbol>

    <symbol id="click" viewBox="0 0 20 20" fill="currentColor" xmlns="http://www.w3.org/2000/svg">
        <path d="M10 1a.75.75 0 0 1 .75.75v1.5a.75.75 0 0 1-1.5 0v-1.5A.75.75 0 0 1 10 1ZM5.05 3.05a.75.75 0 0 1 1.06 0l1.062 1.06A.75.75 0 1 1 6.11 5.173L5.05 4.11a.75.75 0 0 1 0-1.06ZM14.95 3.05a.75.75 0 0 1 0 1.06l-1.06 1.062a.75.75 0 0 1-1.062-1.061l1.061-1.06a.75.75 0 0 1 1.06 0ZM3 8a.75.75 0 0 1 .75-.75h1.5a.75.75 0 0 1 0 1.5h-1.5A.75.75 0 0 1 3 8ZM14 8a.75.75 0 0 1 .75-.75h1.5a.75.75 0 0 1 0 1.5h-1.5A.75.75 0 0 1 14 8ZM7.172 10.828a.75.75 0 0 1 0 1.061L6.11 12.95a.75.75 0 0 1-1.06-1.06l1.06-1.06a.75.75 0 0 1 1.06 0ZM10.766 7.51a.75.75 0 0 0-1.37.365l-.492 6.861a.75.75 0 0 0 1.204.65l1.043-.799.985 3.678a.75.75 0 0 0 1.45-.388l-.978-3.646 1.292.204a.75.75 0 0 0 .74-1.16l-3.874-5.764Z" />
    </symbol>

    <symbol id="progress" xmlns="http://www.w3.org/2000/svg" viewBox="0 0 16 16" fill="none">
        <path fill-rule="evenodd" clip-rule="evenodd" d="M8.00001 2.65001C5.04528 2.65001 2.65001 5.04528 2.65001 8.00001C2.65001 10.9547 5.04528 13.35 8.00001 13.35C10.9547 13.35 13.35 10.9547 13.35 8.00001H14.65C14.65 11.6727 11.6727 14.65 8.00001 14.65C4.32731 14.65 1.35001 11.6727 1.35001 8.00001C1.35001 4.32731 4.32731 1.35001 8.00001 1.35001V2.65001Z" fill="currentColor"/>
    </symbol>
</svg>